<?xml version="1.0" encoding="UTF-8"?>
<svg width="32px" height="32px" viewBox="0 0 32 32" version="1.1" xmlns="http://www.w3.org/2000/svg">
    <title>CAPIVISION OCR</title>
    <g stroke="none" stroke-width="1" fill="none" fill-rule="evenodd">
        <circle fill="#FFFFFF" cx="16" cy="16" r="16"/>
        <g transform="translate(4, 4)">
            <!-- Cabeça da Capivara -->
            <path d="M12,2 C7.5,2 4,5.5 4,10 C4,14.5 7.5,18 12,18 C16.5,18 20,14.5 20,10 C20,5.5 16.5,2 12,2" fill="#FF6B00"/>
            <!-- Olho -->
            <circle fill="#FFFFFF" cx="10" cy="8" r="1.5"/>
            <!-- Sorriso -->
            <path d="M9,11 C9,11 10,12 12,12 C14,12 15,11 15,11" stroke="#FFFFFF" stroke-width="1" stroke-linecap="round"/>
            <!-- Fone de Ouvido -->
            <path d="M8,6 C8,6 6,7 6,10 C6,13 8,14 8,14 M16,6 C16,6 18,7 18,10 C18,13 16,14 16,14" stroke="#00B3B3" stroke-width="2" stroke-linecap="round"/>
            <path d="M7,9 C7,9 5,9 5,10 C5,11 7,11 7,11 M17,9 C17,9 19,9 19,10 C19,11 17,11 17,11" fill="#00B3B3"/>
        </g>
    </g>
</svg> 